<mxfile host="Electron" modified="2024-07-16T01:56:03.664Z" agent="Mozilla/5.0 (Windows NT 10.0; Win64; x64) AppleWebKit/537.36 (KHTML, like Gecko) draw.io/24.5.3 Chrome/124.0.6367.207 Electron/30.0.6 Safari/537.36" etag="ifrp0t9Mo_TGG46fdMJH" version="24.5.3" type="device">
  <diagram name="PÃ¡gina-1" id="helEaoLC3wLzontwLgMG">
    <mxGraphModel dx="880" dy="572" grid="1" gridSize="10" guides="1" tooltips="1" connect="1" arrows="1" fold="1" page="1" pageScale="1" pageWidth="827" pageHeight="1169" math="0" shadow="0">
      <root>
        <mxCell id="0" />
        <mxCell id="1" parent="0" />
        <mxCell id="0t8Lm5CL7CoSDorYBLfl-1" value="" style="verticalLabelPosition=bottom;shadow=0;dashed=0;align=center;html=1;verticalAlign=top;shape=mxgraph.electrical.logic_gates.buffer2;" vertex="1" parent="1">
          <mxGeometry x="130" y="190" width="100" height="60" as="geometry" />
        </mxCell>
      </root>
    </mxGraphModel>
  </diagram>
</mxfile>
